<?xml version="1.0" encoding="UTF-8"?>
<svg width="14px" height="18px" viewBox="0 0 14 18" version="1.1" xmlns="http://www.w3.org/2000/svg" xmlns:xlink="http://www.w3.org/1999/xlink">
    <!-- Generator: sketchtool 50.2 (55047) - http://www.bohemiancoding.com/sketch -->
    <title>C23E3B17-B854-47FD-AA9D-A53C8DFC18F3</title>
    <desc>Created with sketchtool.</desc>
    <defs></defs>
    <g id="Page-1" stroke="none" stroke-width="1" fill="none" fill-rule="evenodd">
        <g id="Card-pop-up" transform="translate(-1043.000000, -401.000000)">
            <g id="Product-Line-Copy-2" transform="translate(326.000000, 398.000000)">
                <g id="Product-Line">
                    <g id="Ico-/-Delete" transform="translate(712.000000, 0.000000)">
                        <rect id="Background" x="0" y="0" width="24" height="24"></rect>
                        <g>
                            <path d="M16,9 L16,19 L8,19 L8,9 L16,9 Z M14.5,3 L9.5,3 L8.5,4 L5,4 L5,6 L19,6 L19,4 L15.5,4 L14.5,3 Z M18,7 L6,7 L6,19 C6,20.1 6.9,21 8,21 L16,21 C17.1,21 18,20.1 18,19 L18,7 Z" id="icon/action/delete_24px" fill="#009FFF" fill-rule="nonzero"></path>
                            <g id="Placeholder">
                                <rect id="Background" x="0" y="0" width="24" height="24"></rect>
                                <rect x="0" y="0" width="24" height="24"></rect>
                            </g>
                        </g>
                    </g>
                </g>
            </g>
        </g>
    </g>
</svg>