<?xml version="1.0" encoding="UTF-8"?>
<svg width="31px" height="31px" viewBox="0 0 31 31" version="1.1" xmlns="http://www.w3.org/2000/svg" xmlns:xlink="http://www.w3.org/1999/xlink">
    <!-- Generator: sketchtool 50.2 (55047) - http://www.bohemiancoding.com/sketch -->
    <title>349B3D1C-7FE6-47A8-93E9-9B2B026464E6</title>
    <desc>Created with sketchtool.</desc>
    <defs></defs>
    <g id="Page-1" stroke="none" stroke-width="1" fill="none" fill-rule="evenodd">
        <g id="Card-pop-up" transform="translate(-486.000000, -336.000000)">
            <g id="Product-Line-Copy" transform="translate(326.000000, 292.000000)">
                <g id="Product-Line">
                    <g id="Qnt" transform="translate(95.000000, 43.000000)">
                        <g id="Plus">
                            <g transform="translate(65.000000, 1.000000)">
                                <path d="M2,0 L31,0 L31,31 L2,31 C0.8954305,31 1.3527075e-16,30.1045695 0,29 L0,2 C-1.3527075e-16,0.8954305 0.8954305,2.02906125e-16 2,0 Z" id="Rectangle-Copy" fill="#ECF2F8" transform="translate(15.500000, 15.500000) scale(-1, 1) translate(-15.500000, -15.500000) "></path>
                                <polygon id="icon/content/add_24px" fill="#019FFF" fill-rule="nonzero" points="21 16.7142857 16.7142857 16.7142857 16.7142857 21 15.2857143 21 15.2857143 16.7142857 11 16.7142857 11 15.2857143 15.2857143 15.2857143 15.2857143 11 16.7142857 11 16.7142857 15.2857143 21 15.2857143"></polygon>
                            </g>
                        </g>
                    </g>
                </g>
            </g>
        </g>
    </g>
</svg>